<svg xmlns="http://www.w3.org/2000/svg" xmlns:xlink="http://www.w3.org/1999/xlink" width="200" zoomAndPan="magnify" viewBox="0 0 150 44.999999" height="60" preserveAspectRatio="xMidYMid meet" version="1.0"><defs><g/><clipPath id="a1dee548dc"><path d="M 27.578125 17.566406 L 123.070312 17.566406 L 123.070312 44.175781 L 27.578125 44.175781 Z M 27.578125 17.566406 " clip-rule="nonzero"/></clipPath><clipPath id="f718283ea5"><path d="M 0.578125 0.566406 L 96.070312 0.566406 L 96.070312 27.175781 L 0.578125 27.175781 Z M 0.578125 0.566406 " clip-rule="nonzero"/></clipPath><clipPath id="b68650e8f0"><rect x="0" width="97" y="0" height="28"/></clipPath><clipPath id="907c4bbf21"><path d="M 25.101562 17 L 64.101562 17 L 64.101562 44.25 L 25.101562 44.25 Z M 25.101562 17 " clip-rule="nonzero"/></clipPath><clipPath id="7a6fa197e5"><path d="M 25.101562 8 L 64.101562 8 L 64.101562 18 L 25.101562 18 Z M 25.101562 8 " clip-rule="nonzero"/></clipPath><clipPath id="edc1fc5546"><path d="M 32.914062 24.296875 L 115.257812 24.296875 L 115.257812 37.445312 L 32.914062 37.445312 Z M 32.914062 24.296875 " clip-rule="nonzero"/></clipPath><clipPath id="bb137eea1d"><path d="M 0.914062 0.296875 L 83.257812 0.296875 L 83.257812 13.445312 L 0.914062 13.445312 Z M 0.914062 0.296875 " clip-rule="nonzero"/></clipPath><clipPath id="6f6d8e6e17"><rect x="0" width="84" y="0" height="14"/></clipPath><clipPath id="0a626d0648"><path d="M 0.121094 3 L 10 3 L 10 12 L 0.121094 12 Z M 0.121094 3 " clip-rule="nonzero"/></clipPath><clipPath id="903b537a2b"><rect x="0" width="71" y="0" height="13"/></clipPath></defs><g clip-path="url(#a1dee548dc)"><g transform="matrix(1, 0, 0, 1, 27, 17)"><g clip-path="url(#b68650e8f0)"><g clip-path="url(#f718283ea5)"><path fill="#3a2c99" d="M 0.578125 0.566406 L 96.105469 0.566406 L 96.105469 27.175781 L 0.578125 27.175781 Z M 0.578125 0.566406 " fill-opacity="1" fill-rule="nonzero"/></g></g></g></g><g clip-path="url(#907c4bbf21)"><path fill="#3a2c99" d="M 25.101562 17.605469 L 64.292969 17.605469 L 64.292969 44.152344 L 25.101562 44.152344 Z M 25.101562 17.605469 " fill-opacity="1" fill-rule="nonzero"/></g><g clip-path="url(#7a6fa197e5)"><path fill="#c8c7ee" d="M 64.296875 17.605469 L 25.101562 17.605469 L 33.265625 8.902344 L 56.128906 8.902344 Z M 64.296875 17.605469 " fill-opacity="1" fill-rule="nonzero"/></g><path fill="#ffffff" d="M 33.003906 24.632812 L 56.394531 24.632812 L 56.394531 35.410156 L 33.003906 35.410156 Z M 33.003906 24.632812 " fill-opacity="1" fill-rule="nonzero"/><path fill="#3a2c99" d="M 55.074219 14.273438 L 34.320312 14.273438 C 33.757812 14.273438 33.300781 13.816406 33.300781 13.253906 C 33.300781 12.691406 33.757812 12.234375 34.320312 12.234375 L 55.074219 12.234375 C 55.636719 12.234375 56.09375 12.691406 56.09375 13.253906 C 56.09375 13.816406 55.636719 14.273438 55.074219 14.273438 Z M 55.074219 14.273438 " fill-opacity="1" fill-rule="nonzero"/><path fill="#ffb700" d="M 37.132812 0.015625 L 52.261719 0.015625 L 52.261719 14.230469 L 37.132812 14.230469 Z M 37.132812 0.015625 " fill-opacity="1" fill-rule="nonzero"/><path fill="#ffffff" d="M 49.0625 7.042969 C 49.0625 7.332031 49.035156 7.613281 48.980469 7.894531 C 48.925781 8.175781 48.839844 8.449219 48.730469 8.714844 C 48.621094 8.980469 48.488281 9.230469 48.328125 9.46875 C 48.167969 9.707031 47.988281 9.929688 47.785156 10.132812 C 47.582031 10.335938 47.363281 10.515625 47.125 10.675781 C 46.886719 10.835938 46.632812 10.96875 46.367188 11.078125 C 46.105469 11.1875 45.832031 11.269531 45.550781 11.328125 C 45.269531 11.382812 44.984375 11.410156 44.699219 11.410156 C 44.410156 11.410156 44.125 11.382812 43.84375 11.328125 C 43.5625 11.269531 43.292969 11.1875 43.027344 11.078125 C 42.761719 10.96875 42.511719 10.835938 42.273438 10.675781 C 42.03125 10.515625 41.8125 10.335938 41.609375 10.132812 C 41.40625 9.929688 41.226562 9.707031 41.066406 9.46875 C 40.90625 9.230469 40.773438 8.980469 40.664062 8.714844 C 40.554688 8.449219 40.472656 8.175781 40.414062 7.894531 C 40.359375 7.613281 40.332031 7.332031 40.332031 7.042969 C 40.332031 6.757812 40.359375 6.472656 40.414062 6.191406 C 40.472656 5.910156 40.554688 5.636719 40.664062 5.375 C 40.773438 5.109375 40.90625 4.855469 41.066406 4.617188 C 41.226562 4.378906 41.40625 4.160156 41.609375 3.957031 C 41.8125 3.753906 42.03125 3.574219 42.273438 3.414062 C 42.511719 3.253906 42.761719 3.121094 43.027344 3.011719 C 43.292969 2.898438 43.5625 2.816406 43.84375 2.761719 C 44.125 2.707031 44.410156 2.675781 44.699219 2.675781 C 44.984375 2.675781 45.269531 2.707031 45.550781 2.761719 C 45.832031 2.816406 46.105469 2.898438 46.367188 3.011719 C 46.632812 3.121094 46.886719 3.253906 47.125 3.414062 C 47.363281 3.574219 47.582031 3.753906 47.785156 3.957031 C 47.988281 4.160156 48.167969 4.378906 48.328125 4.617188 C 48.488281 4.855469 48.621094 5.109375 48.730469 5.375 C 48.839844 5.636719 48.925781 5.910156 48.980469 6.191406 C 49.035156 6.472656 49.0625 6.757812 49.0625 7.042969 Z M 49.0625 7.042969 " fill-opacity="1" fill-rule="nonzero"/><path fill="#3a2c99" d="M 44.601562 9.28125 C 44.339844 9.28125 44.078125 9.179688 43.878906 8.980469 L 42.578125 7.679688 C 42.179688 7.28125 42.179688 6.636719 42.578125 6.238281 C 42.980469 5.839844 43.625 5.839844 44.023438 6.238281 L 44.601562 6.816406 L 47.890625 3.527344 C 48.289062 3.128906 48.933594 3.128906 49.332031 3.527344 C 49.730469 3.925781 49.730469 4.574219 49.332031 4.972656 L 45.324219 8.980469 C 45.125 9.179688 44.863281 9.28125 44.601562 9.28125 Z M 44.601562 9.28125 " fill-opacity="1" fill-rule="nonzero"/><path fill="#3a2c99" d="M 40.503906 28.058594 L 38.617188 32.515625 L 37.140625 32.515625 L 35.253906 28.058594 L 36.871094 28.058594 L 37.9375 30.664062 L 39.027344 28.058594 Z M 40.503906 28.058594 " fill-opacity="1" fill-rule="nonzero"/><path fill="#3a2c99" d="M 40.40625 30.289062 C 40.40625 28.9375 41.472656 27.957031 42.925781 27.957031 C 44.378906 27.957031 45.441406 28.9375 45.441406 30.289062 C 45.441406 31.636719 44.378906 32.621094 42.925781 32.621094 C 41.472656 32.621094 40.40625 31.640625 40.40625 30.289062 Z M 43.925781 30.289062 C 43.925781 29.59375 43.480469 29.171875 42.925781 29.171875 C 42.371094 29.171875 41.925781 29.59375 41.925781 30.289062 C 41.925781 30.980469 42.371094 31.402344 42.925781 31.402344 C 43.480469 31.402344 43.925781 30.980469 43.925781 30.289062 Z M 43.925781 30.289062 " fill-opacity="1" fill-rule="nonzero"/><path fill="#3a2c99" d="M 46.894531 29.222656 L 45.585938 29.222656 L 45.585938 28.058594 L 49.703125 28.058594 L 49.703125 29.222656 L 48.398438 29.222656 L 48.398438 32.515625 L 46.894531 32.515625 Z M 46.894531 29.222656 " fill-opacity="1" fill-rule="nonzero"/><path fill="#3a2c99" d="M 53.796875 31.382812 L 53.796875 32.519531 L 50.089844 32.519531 L 50.089844 28.058594 L 53.714844 28.058594 L 53.714844 29.191406 L 51.570312 29.191406 L 51.570312 29.714844 L 53.453125 29.714844 L 53.453125 30.796875 L 51.570312 30.796875 L 51.570312 31.382812 Z M 53.796875 31.382812 " fill-opacity="1" fill-rule="nonzero"/><g clip-path="url(#edc1fc5546)"><g transform="matrix(1, 0, 0, 1, 32, 24)"><g clip-path="url(#6f6d8e6e17)"><g clip-path="url(#bb137eea1d)"><path fill="#ffffff" d="M 0.914062 0.296875 L 83.238281 0.296875 L 83.238281 13.445312 L 0.914062 13.445312 Z M 0.914062 0.296875 " fill-opacity="1" fill-rule="nonzero"/></g></g></g></g><g transform="matrix(1, 0, 0, 1, 39, 24)"><g clip-path="url(#903b537a2b)"><g clip-path="url(#0a626d0648)"><g fill="#000000" fill-opacity="1"><g transform="translate(0.297699, 11.003758)"><g><path d="M 2.78125 -7.875 L 0.140625 -7.875 L 3.15625 0 L 5.6875 0 L 8.71875 -7.875 L 6.09375 -7.875 L 4.421875 -3.4375 Z M 2.78125 -7.875 "/></g></g></g></g><g fill="#000000" fill-opacity="1"><g transform="translate(8.548069, 11.003758)"><g><path d="M 4.125 0.125 C 2.945312 0.125 2.035156 -0.226562 1.390625 -0.9375 C 0.742188 -1.644531 0.421875 -2.644531 0.421875 -3.9375 C 0.421875 -5.238281 0.742188 -6.238281 1.390625 -6.9375 C 2.035156 -7.644531 2.945312 -8 4.125 -8 C 5.3125 -8 6.222656 -7.644531 6.859375 -6.9375 C 7.503906 -6.238281 7.828125 -5.238281 7.828125 -3.9375 C 7.828125 -2.644531 7.503906 -1.644531 6.859375 -0.9375 C 6.222656 -0.226562 5.3125 0.125 4.125 0.125 Z M 4.125 -2.09375 C 4.488281 -2.09375 4.769531 -2.25 4.96875 -2.5625 C 5.175781 -2.882812 5.285156 -3.34375 5.296875 -3.9375 C 5.285156 -4.53125 5.175781 -4.988281 4.96875 -5.3125 C 4.769531 -5.632812 4.488281 -5.796875 4.125 -5.796875 C 3.75 -5.796875 3.457031 -5.632812 3.25 -5.3125 C 3.039062 -4.988281 2.9375 -4.53125 2.9375 -3.9375 C 2.9375 -3.34375 3.039062 -2.882812 3.25 -2.5625 C 3.457031 -2.25 3.75 -2.09375 4.125 -2.09375 Z M 4.125 -2.09375 "/></g></g></g><g fill="#000000" fill-opacity="1"><g transform="translate(16.452054, 11.003758)"><g><path d="M 7.296875 -5.671875 L 5.15625 -5.671875 L 5.15625 0 L 2.609375 0 L 2.609375 -5.671875 L 0.453125 -5.671875 L 0.453125 -7.875 L 7.296875 -7.875 Z M 7.296875 -5.671875 "/></g></g></g><g fill="#000000" fill-opacity="1"><g transform="translate(22.687066, 11.003758)"><g><path d="M 5.65625 -1.15625 L 3 -1.15625 L 2.578125 0 L 0.109375 0 L 3.046875 -7.875 L 5.640625 -7.875 L 8.546875 0 L 6.0625 0 Z M 4.953125 -3.03125 L 4.34375 -5.1875 L 3.703125 -3.03125 Z M 4.953125 -3.03125 "/></g></g></g><g fill="#000000" fill-opacity="1"><g transform="translate(31.29957, 11.003758)"><g><path d="M 3.0625 -7.875 L 3.0625 0 L 0.515625 0 L 0.515625 -7.875 Z M 3.0625 -7.875 "/></g></g></g><g fill="#000000" fill-opacity="1"><g transform="translate(34.873686, 11.003758)"><g><path d="M 0.515625 0 L 0.515625 -7.890625 L 2.671875 -7.890625 L 4.796875 -4.234375 L 4.796875 -7.875 L 7.359375 -7.875 L 7.359375 0 L 5.203125 -0.015625 L 3.0625 -3.65625 L 3.0625 0 Z M 0.515625 0 "/></g></g></g><g fill="#000000" fill-opacity="1"><g transform="translate(42.667455, 11.003758)"><g><path d="M 4.953125 -3.28125 C 4.835938 -2.488281 4.515625 -2.09375 3.984375 -2.09375 C 3.660156 -2.09375 3.40625 -2.25 3.21875 -2.5625 C 3.03125 -2.882812 2.9375 -3.34375 2.9375 -3.9375 C 2.9375 -4.53125 3.03125 -4.988281 3.21875 -5.3125 C 3.40625 -5.632812 3.660156 -5.796875 3.984375 -5.796875 C 4.222656 -5.796875 4.425781 -5.6875 4.59375 -5.46875 C 4.769531 -5.257812 4.890625 -4.960938 4.953125 -4.578125 L 7.421875 -4.96875 C 7.222656 -5.9375 6.820312 -6.679688 6.21875 -7.203125 C 5.625 -7.734375 4.875 -8 3.96875 -8 C 2.832031 -8 1.957031 -7.644531 1.34375 -6.9375 C 0.726562 -6.238281 0.421875 -5.238281 0.421875 -3.9375 C 0.421875 -2.644531 0.726562 -1.644531 1.34375 -0.9375 C 1.957031 -0.226562 2.832031 0.125 3.96875 0.125 C 4.875 0.125 5.625 -0.140625 6.21875 -0.671875 C 6.820312 -1.203125 7.222656 -1.941406 7.421875 -2.890625 Z M 4.953125 -3.28125 "/></g></g></g><g fill="#000000" fill-opacity="1"><g transform="translate(50.508458, 11.003758)"><g><path d="M 0.515625 -7.875 L 3.0625 -7.875 L 3.0625 -3.546875 C 3.0625 -3.078125 3.140625 -2.71875 3.296875 -2.46875 C 3.453125 -2.21875 3.671875 -2.09375 3.953125 -2.09375 C 4.222656 -2.09375 4.429688 -2.21875 4.578125 -2.46875 C 4.722656 -2.71875 4.796875 -3.078125 4.796875 -3.546875 L 4.796875 -7.875 L 7.359375 -7.875 L 7.359375 -3.546875 C 7.359375 -2.378906 7.0625 -1.472656 6.46875 -0.828125 C 5.875 -0.191406 5.03125 0.125 3.9375 0.125 C 2.84375 0.125 2 -0.191406 1.40625 -0.828125 C 0.8125 -1.472656 0.515625 -2.378906 0.515625 -3.546875 Z M 0.515625 -7.875 "/></g></g></g><g fill="#000000" fill-opacity="1"><g transform="translate(58.349461, 11.003758)"><g><path d="M 6.171875 -4.078125 C 7.109375 -3.773438 7.578125 -3.15625 7.578125 -2.21875 C 7.578125 -1.519531 7.285156 -0.972656 6.703125 -0.578125 C 6.117188 -0.191406 5.28125 0 4.1875 0 L 0.515625 0 L 0.515625 -7.875 L 4.609375 -7.875 C 5.429688 -7.875 6.0625 -7.679688 6.5 -7.296875 C 6.9375 -6.910156 7.15625 -6.363281 7.15625 -5.65625 C 7.15625 -4.90625 6.828125 -4.378906 6.171875 -4.078125 Z M 3.03125 -4.890625 L 4.25 -4.890625 C 4.632812 -4.890625 4.828125 -5.046875 4.828125 -5.359375 C 4.828125 -5.671875 4.632812 -5.851562 4.25 -5.90625 L 3.03125 -5.90625 Z M 4.40625 -1.96875 C 4.863281 -1.96875 5.09375 -2.148438 5.09375 -2.515625 C 5.09375 -2.890625 4.863281 -3.078125 4.40625 -3.078125 L 3.03125 -3.078125 L 3.03125 -1.96875 Z M 4.40625 -1.96875 "/></g></g></g><g fill="#000000" fill-opacity="1"><g transform="translate(66.28493, 11.003758)"><g><path d="M 3.0625 -7.875 L 3.0625 0 L 0.515625 0 L 0.515625 -7.875 Z M 3.0625 -7.875 "/></g></g></g></g></g></svg>