<svg xmlns="http://www.w3.org/2000/svg" xmlns:xlink="http://www.w3.org/1999/xlink" width="64" zoomAndPan="magnify" viewBox="0 0 48 48" height="64" preserveAspectRatio="xMidYMid meet" version="1.0"><defs><clipPath id="972332311e"><path d="M 3.425781 19 L 44.570312 19 L 44.570312 46.945312 L 3.425781 46.945312 Z M 3.425781 19 " clip-rule="nonzero"/></clipPath><clipPath id="97bc1c1a4b"><path d="M 3.425781 10 L 44.570312 10 L 44.570312 20 L 3.425781 20 Z M 3.425781 10 " clip-rule="nonzero"/></clipPath><clipPath id="cacab10ced"><path d="M 16 0.660156 L 32 0.660156 L 32 16 L 16 16 Z M 16 0.660156 " clip-rule="nonzero"/></clipPath><clipPath id="c071817fe3"><path d="M 5.613281 19.09375 L 41.914062 19.09375 L 41.914062 43.699219 L 5.613281 43.699219 Z M 5.613281 19.09375 " clip-rule="nonzero"/></clipPath><clipPath id="64eb1a3d2f"><path d="M 0.613281 0.09375 L 36.914062 0.09375 L 36.914062 24.699219 L 0.613281 24.699219 Z M 0.613281 0.09375 " clip-rule="nonzero"/></clipPath><clipPath id="0d93745331"><rect x="0" width="37" y="0" height="25"/></clipPath></defs><g clip-path="url(#972332311e)"><path fill="#3a2c99" d="M 3.425781 19.136719 L 44.5625 19.136719 L 44.5625 46.996094 L 3.425781 46.996094 Z M 3.425781 19.136719 " fill-opacity="1" fill-rule="nonzero"/></g><g clip-path="url(#97bc1c1a4b)"><path fill="#c8c7ee" d="M 44.5625 19.136719 L 3.425781 19.136719 L 11.996094 10 L 35.992188 10 Z M 44.5625 19.136719 " fill-opacity="1" fill-rule="nonzero"/></g><path fill="#ffffff" d="M 11.71875 26.511719 L 36.269531 26.511719 L 36.269531 37.824219 L 11.71875 37.824219 Z M 11.71875 26.511719 " fill-opacity="1" fill-rule="nonzero"/><path fill="#3a2c99" d="M 34.886719 15.640625 L 13.101562 15.640625 C 12.511719 15.640625 12.03125 15.160156 12.03125 14.570312 C 12.03125 13.976562 12.511719 13.496094 13.101562 13.496094 L 34.886719 13.496094 C 35.476562 13.496094 35.957031 13.976562 35.957031 14.570312 C 35.957031 15.160156 35.476562 15.640625 34.886719 15.640625 Z M 34.886719 15.640625 " fill-opacity="1" fill-rule="nonzero"/><g clip-path="url(#cacab10ced)"><path fill="#ffb700" d="M 16.054688 0.675781 L 31.933594 0.675781 L 31.933594 15.59375 L 16.054688 15.59375 Z M 16.054688 0.675781 " fill-opacity="1" fill-rule="nonzero"/></g><path fill="#ffffff" d="M 28.578125 8.050781 C 28.578125 8.351562 28.546875 8.652344 28.488281 8.945312 C 28.429688 9.242188 28.34375 9.527344 28.226562 9.804688 C 28.113281 10.082031 27.972656 10.347656 27.804688 10.597656 C 27.636719 10.847656 27.449219 11.078125 27.234375 11.292969 C 27.023438 11.503906 26.789062 11.695312 26.539062 11.863281 C 26.289062 12.03125 26.027344 12.171875 25.75 12.285156 C 25.46875 12.402344 25.183594 12.488281 24.886719 12.546875 C 24.59375 12.605469 24.296875 12.632812 23.996094 12.632812 C 23.691406 12.632812 23.394531 12.605469 23.101562 12.546875 C 22.804688 12.488281 22.519531 12.402344 22.242188 12.285156 C 21.960938 12.171875 21.699219 12.03125 21.449219 11.863281 C 21.199219 11.695312 20.964844 11.503906 20.753906 11.292969 C 20.539062 11.078125 20.351562 10.847656 20.183594 10.597656 C 20.015625 10.347656 19.875 10.082031 19.761719 9.804688 C 19.644531 9.527344 19.558594 9.242188 19.5 8.945312 C 19.441406 8.652344 19.410156 8.351562 19.410156 8.050781 C 19.410156 7.75 19.441406 7.453125 19.5 7.15625 C 19.558594 6.863281 19.644531 6.574219 19.761719 6.296875 C 19.875 6.019531 20.015625 5.753906 20.183594 5.503906 C 20.351562 5.253906 20.539062 5.023438 20.753906 4.8125 C 20.964844 4.597656 21.199219 4.40625 21.449219 4.242188 C 21.699219 4.074219 21.960938 3.933594 22.242188 3.816406 C 22.519531 3.703125 22.804688 3.613281 23.101562 3.554688 C 23.394531 3.496094 23.691406 3.46875 23.996094 3.46875 C 24.296875 3.46875 24.59375 3.496094 24.886719 3.554688 C 25.183594 3.613281 25.46875 3.703125 25.75 3.816406 C 26.027344 3.933594 26.289062 4.074219 26.539062 4.242188 C 26.789062 4.40625 27.023438 4.597656 27.234375 4.8125 C 27.449219 5.023438 27.636719 5.253906 27.804688 5.503906 C 27.972656 5.753906 28.113281 6.019531 28.226562 6.296875 C 28.34375 6.574219 28.429688 6.863281 28.488281 7.15625 C 28.546875 7.453125 28.578125 7.75 28.578125 8.050781 Z M 28.578125 8.050781 " fill-opacity="1" fill-rule="nonzero"/><path fill="#3a2c99" d="M 23.894531 10.398438 C 23.621094 10.398438 23.347656 10.292969 23.136719 10.085938 L 21.773438 8.71875 C 21.351562 8.300781 21.351562 7.625 21.773438 7.207031 C 22.191406 6.785156 22.867188 6.785156 23.285156 7.207031 L 23.894531 7.8125 L 27.34375 4.359375 C 27.765625 3.941406 28.441406 3.941406 28.859375 4.359375 C 29.277344 4.78125 29.277344 5.457031 28.859375 5.875 L 24.652344 10.085938 C 24.441406 10.292969 24.167969 10.398438 23.894531 10.398438 Z M 23.894531 10.398438 " fill-opacity="1" fill-rule="nonzero"/><path fill="#3a2c99" d="M 19.59375 30.105469 L 17.613281 34.789062 L 16.0625 34.789062 L 14.082031 30.105469 L 15.78125 30.105469 L 16.898438 32.84375 L 18.039062 30.105469 Z M 19.59375 30.105469 " fill-opacity="1" fill-rule="nonzero"/><path fill="#3a2c99" d="M 19.492188 32.445312 C 19.492188 31.03125 20.609375 30 22.132812 30 C 23.65625 30 24.773438 31.027344 24.773438 32.445312 C 24.773438 33.863281 23.65625 34.894531 22.132812 34.894531 C 20.609375 34.894531 19.492188 33.867188 19.492188 32.445312 Z M 23.183594 32.445312 C 23.183594 31.71875 22.714844 31.277344 22.132812 31.277344 C 21.550781 31.277344 21.082031 31.71875 21.082031 32.445312 C 21.082031 33.175781 21.550781 33.617188 22.132812 33.617188 C 22.714844 33.617188 23.183594 33.175781 23.183594 32.445312 Z M 23.183594 32.445312 " fill-opacity="1" fill-rule="nonzero"/><path fill="#3a2c99" d="M 26.300781 31.332031 L 24.929688 31.332031 L 24.929688 30.105469 L 29.246094 30.105469 L 29.246094 31.332031 L 27.875 31.332031 L 27.875 34.789062 L 26.300781 34.789062 Z M 26.300781 31.332031 " fill-opacity="1" fill-rule="nonzero"/><path fill="#3a2c99" d="M 33.546875 33.597656 L 33.546875 34.789062 L 29.65625 34.789062 L 29.65625 30.109375 L 33.460938 30.109375 L 33.460938 31.296875 L 31.207031 31.296875 L 31.207031 31.847656 L 33.183594 31.847656 L 33.183594 32.984375 L 31.207031 32.984375 L 31.207031 33.597656 Z M 33.546875 33.597656 " fill-opacity="1" fill-rule="nonzero"/><g clip-path="url(#c071817fe3)"><g transform="matrix(1, 0, 0, 1, 5, 19)"><g clip-path="url(#0d93745331)"><g clip-path="url(#64eb1a3d2f)"><path fill="#3a2c99" d="M 0.613281 0.09375 L 36.949219 0.09375 L 36.949219 24.699219 L 0.613281 24.699219 Z M 0.613281 0.09375 " fill-opacity="1" fill-rule="nonzero"/></g></g></g></g></svg>